<?xml version="1.0" standalone="no"?>
<!DOCTYPE svg PUBLIC "-//W3C//DTD SVG 1.1//EN" "http://www.w3.org/Graphics/SVG/1.1/DTD/svg11.dtd">
<svg width="100%" height="100%" viewBox="0 0 734 260" version="1.1" xmlns="http://www.w3.org/2000/svg" xmlns:xlink="http://www.w3.org/1999/xlink" xml:space="preserve" style="fill-rule:evenodd;clip-rule:evenodd;stroke-miterlimit:1.41421;">
    <g transform="matrix(4.16667,0,0,4.16667,0,-3)">
        <path d="M158.064,7.302L158.064,13.662L163.663,13.662C166.65,13.662 167.005,12.168 167.005,10.29C167.005,8.413 166.65,7.302 163.663,7.302L158.064,7.302ZM150.968,2.082L163.663,2.082C169.645,2.082 173.747,4.692 173.747,10.29C173.747,17.383 167.005,19.26 167.005,19.26L174.859,31.955L167.766,31.955L160.674,19.26L158.064,19.26L158.064,31.955L150.968,31.955L150.968,2.082ZM128.541,2.082L147.979,2.082L147.979,7.302L135.283,7.302L135.283,13.662L147.979,13.662L147.979,19.26L135.283,19.26L135.283,26.736L147.979,26.736L147.979,31.955L128.541,31.955L128.541,2.082ZM101.661,2.082L108.376,2.082L117.727,19.994L117.727,2.082L124.82,2.082L124.82,31.955L117.727,31.955L108.376,15.156L108.376,31.955L101.661,31.955L101.661,2.082ZM75.513,2.082L82.224,2.082L82.224,13.662L90.815,13.662L90.815,2.082L97.558,2.082L97.558,31.955L90.815,31.955L90.815,19.26L82.224,19.26L82.224,31.955L75.513,31.955L75.513,2.082ZM65.045,21.869L71.788,21.869L71.788,25.241C71.788,28.963 69.179,33.067 61.324,33.067C53.116,33.067 49.745,28.963 49.745,25.241L49.745,8.797C49.745,5.07 53.116,0.966 60.941,0.966C69.179,0.966 71.788,5.07 71.788,8.797L71.788,11.406L65.045,11.406L65.045,9.908C65.045,5.803 56.105,5.803 56.105,9.908L56.105,24.125C56.105,28.23 65.045,28.23 65.045,24.125L65.045,21.869ZM29.574,2.082L29.574,24.125C29.574,28.23 38.926,28.23 38.926,24.125L38.926,2.082L45.641,2.082L45.641,25.241C45.641,28.963 41.916,33.067 34.439,33.067C27.347,33.067 22.859,28.963 22.859,25.241L22.859,2.082L29.574,2.082ZM0.083,2.082L19.488,2.082L19.488,7.302L6.797,7.302L6.797,13.662L19.488,13.662L19.488,19.26L6.797,19.26L6.797,26.736L19.488,26.736L19.488,31.955L0.083,31.955L0.083,2.082Z" style="fill:rgb(218,31,61);fill-rule:nonzero;"/>
        <path d="M158.064,7.302L158.064,13.662L163.663,13.662C166.65,13.662 167.005,12.168 167.005,10.29C167.005,8.413 166.65,7.302 163.663,7.302L158.064,7.302ZM150.968,2.082L163.663,2.082C169.645,2.082 173.747,4.692 173.747,10.29C173.747,17.383 167.005,19.26 167.005,19.26L174.859,31.955L167.766,31.955L160.674,19.26L158.064,19.26L158.064,31.955L150.968,31.955L150.968,2.082ZM128.541,2.082L147.979,2.082L147.979,7.302L135.283,7.302L135.283,13.662L147.979,13.662L147.979,19.26L135.283,19.26L135.283,26.736L147.979,26.736L147.979,31.955L128.541,31.955L128.541,2.082ZM101.661,2.082L108.376,2.082L117.727,19.994L117.727,2.082L124.82,2.082L124.82,31.955L117.727,31.955L108.376,15.156L108.376,31.955L101.661,31.955L101.661,2.082ZM75.513,2.082L82.224,2.082L82.224,13.662L90.815,13.662L90.815,2.082L97.558,2.082L97.558,31.955L90.815,31.955L90.815,19.26L82.224,19.26L82.224,31.955L75.513,31.955L75.513,2.082ZM65.045,21.869L71.788,21.869L71.788,25.241C71.788,28.963 69.179,33.067 61.324,33.067C53.116,33.067 49.745,28.963 49.745,25.241L49.745,8.797C49.745,5.07 53.116,0.966 60.941,0.966C69.179,0.966 71.788,5.07 71.788,8.797L71.788,11.406L65.045,11.406L65.045,9.908C65.045,5.803 56.105,5.803 56.105,9.908L56.105,24.125C56.105,28.23 65.045,28.23 65.045,24.125L65.045,21.869ZM29.574,2.082L29.574,24.125C29.574,28.23 38.926,28.23 38.926,24.125L38.926,2.082L45.641,2.082L45.641,25.241C45.641,28.963 41.916,33.067 34.439,33.067C27.347,33.067 22.859,28.963 22.859,25.241L22.859,2.082L29.574,2.082ZM0.083,2.082L19.488,2.082L19.488,7.302L6.797,7.302L6.797,13.662L19.488,13.662L19.488,19.26L6.797,19.26L6.797,26.736L19.488,26.736L19.488,31.955L0.083,31.955L0.083,2.082Z" style="fill:none;stroke-width:0.17px;stroke:rgb(218,31,61);"/>
        <path d="M51.076,59.62L49.625,59.62L49.625,45.849L52.032,45.849L55.041,57.195L55.094,57.195L58.049,45.849L60.51,45.849L60.51,59.62L59.059,59.62L59.059,47.141L59.023,47.141L55.66,59.62L54.474,59.62L51.111,47.141L51.076,47.141L51.076,59.62Z" style="fill:rgb(218,31,61);fill-rule:nonzero;"/>
        <path d="M68.861,54.735C68.861,53.071 68.454,50.734 66.33,50.734C64.206,50.734 63.798,53.071 63.798,54.735C63.798,56.398 64.206,58.735 66.33,58.735C68.454,58.735 68.861,56.398 68.861,54.735ZM62.418,54.735C62.418,51.071 64.152,49.566 66.33,49.566C68.506,49.566 70.241,51.071 70.241,54.735C70.241,58.398 68.506,59.903 66.33,59.903C64.152,59.903 62.418,58.398 62.418,54.735Z" style="fill:rgb(218,31,61);fill-rule:nonzero;"/>
        <path d="M73.531,51.955L73.567,51.955C74.115,50.788 74.823,49.707 76.275,49.707L76.806,49.707L76.806,50.964C75.001,50.716 74.062,52.663 73.531,54.08L73.531,59.62L72.151,59.62L72.151,49.849L73.531,49.849L73.531,51.955Z" style="fill:rgb(218,31,61);fill-rule:nonzero;"/>
        <path d="M83.53,53.796C83.565,52.539 82.893,50.734 81.441,50.734C79.884,50.734 79.141,52.415 79.123,53.796L83.53,53.796ZM79.087,54.964C79.087,57.761 80.273,58.735 81.689,58.735C82.716,58.735 83.584,57.903 84.079,57.053L85.07,57.707C84.539,58.964 83.229,59.903 81.548,59.903C79.371,59.903 77.636,58.398 77.636,54.735C77.636,51.071 79.371,49.566 81.548,49.566C84.362,49.566 85.176,52.575 84.981,54.964L79.087,54.964Z" style="fill:rgb(218,31,61);fill-rule:nonzero;"/>
        <path d="M93.987,49.849L96.2,49.849L96.2,51.017L93.987,51.017L93.987,57.16C93.987,58.115 93.969,58.735 95.102,58.735C95.492,58.735 95.863,58.7 96.2,58.611L96.2,59.62C95.757,59.779 95.296,59.903 94.819,59.903C92.483,59.903 92.607,58.328 92.607,56.539L92.607,51.017L91.12,51.017L91.12,49.849L92.607,49.849L92.607,46.681L93.987,46.681L93.987,49.849Z" style="fill:rgb(218,31,61);fill-rule:nonzero;"/>
        <path d="M98.782,50.858C99.596,50.204 100.357,49.566 101.473,49.566C102.854,49.566 103.969,50.327 103.969,52.875L103.969,59.62L102.588,59.62L102.588,53.23C102.588,52.204 102.766,50.699 101.296,50.699C100.446,50.699 99.331,51.531 98.782,52.186L98.782,59.62L97.402,59.62L97.402,45.849L98.782,45.849L98.782,50.858Z" style="fill:rgb(218,31,61);fill-rule:nonzero;"/>
        <path d="M110.852,54.291C109.542,54.681 107.152,55.212 107.152,56.964C107.152,57.779 107.789,58.593 108.621,58.593C109.719,58.593 110.728,57.831 111.4,57L111.4,54.132L110.852,54.291ZM111.542,59.62L111.4,58.38C110.604,59.16 109.719,59.903 108.568,59.903C107.064,59.903 105.86,58.646 105.86,57.106C105.86,54.309 108.799,53.707 110.958,53.123L111.4,52.999L111.4,52.451C111.4,51.336 110.639,50.734 109.542,50.734C108.462,50.734 107.719,51.442 107.152,52.274L106.179,51.548C106.993,50.38 108.055,49.566 109.542,49.566C110.869,49.566 112.781,50.38 112.781,52.61L112.781,57.46C112.799,58.186 112.764,58.929 113.047,59.62L111.542,59.62Z" style="fill:rgb(218,31,61);fill-rule:nonzero;"/>
        <path d="M116.318,59.62L114.938,59.62L114.938,49.849L116.318,49.849L116.318,50.858C117.133,50.204 117.895,49.566 119.009,49.566C120.39,49.566 121.505,50.327 121.505,52.875L121.505,59.62L120.124,59.62L120.124,53.23C120.124,52.204 120.301,50.699 118.832,50.699C117.982,50.699 116.867,51.531 116.318,52.186L116.318,59.62Z" style="fill:rgb(218,31,61);fill-rule:nonzero;"/>
        <path d="M134.174,52.026C133.625,51.212 132.971,50.734 131.944,50.734C131.041,50.734 130.19,51.194 130.19,52.186C130.19,54.575 135.343,53.531 135.343,56.823C135.343,58.735 133.979,59.903 132.139,59.903C130.563,59.903 129.289,59.212 128.492,57.85L129.59,57.16C130.121,58.168 130.97,58.735 132.139,58.735C133.147,58.735 134.051,58.186 134.051,57.071C134.051,54.611 128.899,55.779 128.899,52.274C128.899,50.592 130.28,49.566 131.891,49.566C133.254,49.566 134.387,50.132 135.148,51.265L134.174,52.026Z" style="fill:rgb(218,31,61);fill-rule:nonzero;"/>
        <path d="M141.978,54.291C140.668,54.681 138.278,55.212 138.278,56.964C138.278,57.779 138.916,58.593 139.748,58.593C140.845,58.593 141.854,57.831 142.526,57L142.526,54.132L141.978,54.291ZM142.668,59.62L142.526,58.38C141.73,59.16 140.845,59.903 139.694,59.903C138.189,59.903 136.986,58.646 136.986,57.106C136.986,54.309 139.924,53.707 142.084,53.123L142.526,52.999L142.526,52.451C142.526,51.336 141.766,50.734 140.668,50.734C139.588,50.734 138.845,51.442 138.278,52.274L137.305,51.548C138.119,50.38 139.182,49.566 140.668,49.566C141.995,49.566 143.907,50.38 143.907,52.61L143.907,57.46C143.925,58.186 143.889,58.929 144.172,59.62L142.668,59.62Z" style="fill:rgb(218,31,61);fill-rule:nonzero;"/>
        <path d="M149.816,51.017L148.011,51.017L148.011,59.62L146.631,59.62L146.631,51.017L145.144,51.017L145.144,49.849L146.631,49.849L146.631,48.079C146.631,46.415 147.568,45.566 149.215,45.566L149.94,45.672L149.94,46.858C149.729,46.787 149.498,46.734 149.268,46.734C148.224,46.734 148.011,47.265 148.011,48.061L148.011,49.849L149.816,49.849L149.816,51.017Z" style="fill:rgb(218,31,61);fill-rule:nonzero;"/>
        <path d="M156.789,53.796C156.824,52.539 156.151,50.734 154.699,50.734C153.143,50.734 152.398,52.415 152.381,53.796L156.789,53.796ZM152.346,54.964C152.346,57.761 153.531,58.735 154.947,58.735C155.975,58.735 156.842,57.903 157.337,57.053L158.328,57.707C157.797,58.964 156.487,59.903 154.807,59.903C152.629,59.903 150.895,58.398 150.895,54.735C150.895,51.071 152.629,49.566 154.807,49.566C157.62,49.566 158.435,52.575 158.24,54.964L152.346,54.964Z" style="fill:rgb(218,31,61);fill-rule:nonzero;"/>
        <path d="M162.149,49.849L164.361,49.849L164.361,51.017L162.149,51.017L162.149,57.16C162.149,58.115 162.131,58.735 163.264,58.735C163.654,58.735 164.025,58.7 164.361,58.611L164.361,59.62C163.919,59.779 163.459,59.903 162.98,59.903C160.645,59.903 160.769,58.328 160.769,56.539L160.769,51.017L159.281,51.017L159.281,49.849L160.769,49.849L160.769,46.681L162.149,46.681L162.149,49.849Z" style="fill:rgb(218,31,61);fill-rule:nonzero;"/>
        <path d="M169.192,60.009C168.662,61.691 167.794,63 165.848,63C165.458,63 165.156,62.929 164.785,62.805L164.998,61.637C165.245,61.708 165.511,61.779 165.794,61.779C167.192,61.779 167.652,60.611 168.007,59.443L164.644,49.849L166.042,49.849L168.697,57.478L171.122,49.849L172.432,49.849L169.192,60.009Z" style="fill:rgb(218,31,61);fill-rule:nonzero;"/>
        <rect x="173.332" y="57.548" width="1.788" height="2.072" style="fill:rgb(218,31,61);fill-rule:nonzero;"/>
    </g>
</svg>
