<svg xmlns="http://www.w3.org/2000/svg" xmlns:xlink="http://www.w3.org/1999/xlink" width="210" height="96" viewBox="0 0 210 96"><path fill="#CE004F" d="M0 .002h210v96H0z"/><path fill-rule="evenodd" clip-rule="evenodd" fill="#FFF" d="M8.188 4.378h193.625v83.537H8.188z"/><defs><path id="a" d="M0 0h210v96.002H0z"/></defs><clipPath id="b"><use xlink:href="#a" overflow="visible"/></clipPath><path d="M0 0h209.998v96H0V0zm179.508 16.596c7.27-.34 24.45 9.68 11.13 29.01 7.448 2.294 17.653 32.228-11.13 34.898h-41.22v-26.24H95.85v10.74h36.675v15.5l-77.582.033L34.834 46.53v33.974h-19.4V16.63l19.4-.035v18.267l19.356-18.267h78.333v15.43H95.847v8.725l42.442-.035v-24.12h41.218zM76.523 18.853l-21.306 22.85 21.306 34.964V18.853zM170.8 32.027c6.25.408 7.853 7.938-.585 8.69h-12.52v-8.69h13.104zm1.845 22.202h-14.89v10.74h14.58c8.436-.756 6.552-10.33.31-10.74" clip-path="url(#b)" fill-rule="evenodd" clip-rule="evenodd" fill="#CE004F"/></svg>