<svg xmlns="http://www.w3.org/2000/svg" width="233.196" height="25.986" viewBox="0 0 233.196 25.986"><defs><style>.a{fill:#2c2a29;}.b{fill:#00a587;}.c{fill:#fff;}</style></defs><path class="a" d="M147.287,26.175h3.761V18.337h7.184V15.064h-7.184V11.091H159.3V7.663H147.287Z" transform="translate(6.033 -0.74)"/><path class="a" d="M170.771,18.337V19.9a2.905,2.905,0,0,1-1.217,2.6,3.264,3.264,0,0,1-2.335.547,3.34,3.34,0,0,1-2.073-.547,3.012,3.012,0,0,1-1.376-2.6l-.08-1.558V7.663h-3.737V19.556a5.416,5.416,0,0,0,.109,1.113,6.521,6.521,0,0,0,4.925,5.69,7.743,7.743,0,0,0,2.287.182,7.58,7.58,0,0,0,2.154-.232c2.859-.746,4.828-2.716,5.032-5.663l.075-1.118V7.663h-3.762V18.337Z" transform="translate(7.772 -0.74)"/><path class="a" d="M201.084,14.959h-6.8v-7.3h-3.735V26.179h3.735V18.262h6.8v7.917h3.711V7.663h-3.711Z" transform="translate(11.975 -0.74)"/><path class="a" d="M190.243,19.088h-3.635v.573a3.655,3.655,0,0,1-3.735,3.632c-2.855-.181-3.839-1.844-4.435-4.077a8.085,8.085,0,0,1-.18-2.569,9.661,9.661,0,0,1,.47-2.7,4.372,4.372,0,0,1,4.3-3.22,3.536,3.536,0,0,1,3.085,1.794,3.339,3.339,0,0,1,.519,1.5h3.609l-.081-.463a7.653,7.653,0,0,0-2.257-4.468c-1.375-1.458-2.916-1.8-4.979-1.795a7.554,7.554,0,0,0-4.408,1.275c-3.025,1.821-3.792,4.751-3.9,8.175-.127,4.835,2.39,9.922,7.785,10.029,3.786.049,7.12-2.167,7.782-5.924a5.016,5.016,0,0,0,.08-1.429Z" transform="translate(9.787 -0.79)"/><path class="a" d="M209.135,12.21c.431-2.638,5.472-2.183,6.018.489.032.474.041.553.041.553l3.7,0-.026-.441c-.166-3.321-3.33-5.546-7.069-5.515-3.361,0-6.417,2.176-6.311,5.935a4.678,4.678,0,0,0,3.244,4.209c4.5,1.812,6.654,1.03,6.806,3.748.1,1.8-2.081,2.242-3.241,2.138-1.572-.136-2.976-.588-3.465-2.089a2.511,2.511,0,0,1-.154-.906v-.254h-3.738v.546c0,3.969,3.626,6.16,7.338,6.073,3.569-.089,7.11-2.02,6.958-5.956C218.952,13.184,208.469,16.31,209.135,12.21Z" transform="translate(13.952 -0.79)"/><path class="a" d="M93.295,26.207h12.738V22.8H97.056V18.334h8.252V15.088H97.056v-4h8.977v-3.4H93.295Z" transform="translate(-1.383 -0.737)"/><path class="a" d="M51.988,26.207H64.727V22.8H55.749V18.334H64V15.088H55.749v-4h8.978v-3.4H51.988Z" transform="translate(-7.057 -0.737)"/><path class="a" d="M125.446,22.783V7.682h-3.757v18.49h12V22.783Z" transform="translate(2.517 -0.737)"/><path class="a" d="M74.676,7.726a5.174,5.174,0,0,0-.91-.05H65.289v18.53h3.8V19.565H73.4l.759-.049c2.958-.2,4.653-3.1,4.7-5.829C78.908,11.289,77.608,8.352,74.676,7.726Zm-1.355,8.538-.649.051H69.084v-5.39H72.8c.206,0,.338.051.52.051,1.3.133,1.9,1.426,1.873,2.71C75.17,14.929,74.514,16.167,73.321,16.264Z" transform="translate(-5.23 -0.738)"/><path class="a" d="M88.647,7.737a5.028,5.028,0,0,0-.906-.051H79.282V26.173h3.787V19.553h4.306l.755-.052c2.955-.2,4.642-3.092,4.693-5.816C92.871,11.3,91.579,8.36,88.647,7.737ZM87.3,16.255l-.649.05H83.069V10.933h3.713c.2,0,.333.05.514.05,1.3.13,1.891,1.422,1.87,2.7C89.144,14.923,88.49,16.159,87.3,16.255Z" transform="translate(-3.308 -0.737)"/><path class="a" d="M120.691,24.233c-.273-1.507-.1-2.308-.313-3.916a4.244,4.244,0,0,0-1.6-2.64l-.523-.341.727-.517A4.153,4.153,0,0,0,120.56,14a4.729,4.729,0,0,0-.026-2.722,4.187,4.187,0,0,0-2.292-3.081,4.668,4.668,0,0,0-2.315-.5h-9.24V26.171h3.726V19.025h4.477a1.507,1.507,0,0,1,1.164.491,4.069,4.069,0,0,1,.987,2.875,12.4,12.4,0,0,0,.362,3.264l.154.515H121.1l-.176-.646Zm-3.757-10.444a2.091,2.091,0,0,1-2.068,2.1l-.885.051h-3.57V10.965h4.477a1.934,1.934,0,0,1,2.046,1.915A5.483,5.483,0,0,1,116.934,13.788Z" transform="translate(0.456 -0.735)"/><path class="a" d="M146.318,17.588h-4.289V13.095h-3.752v4.493h-4.3v3.294h4.3v4.549h3.752V20.881h4.289Z" transform="translate(4.205 0.006)"/><path class="a" d="M47.479,7.737a5,5,0,0,0-.909-.051H38.114V26.173H41.9V19.552h4.3l.754-.053c2.955-.2,4.643-3.091,4.7-5.813C51.707,11.3,50.411,8.36,47.479,7.737Zm-1.35,8.515-.649.052H41.9V10.933h3.709c.2,0,.338.05.52.05,1.3.13,1.894,1.422,1.869,2.7C47.976,14.923,47.322,16.159,46.129,16.253Z" transform="translate(-8.962 -0.737)"/><path class="b" d="M12.483,1.576H37.918V27.01H12.483Z" transform="translate(-12.483 -1.576)"/><path class="c" d="M26.914,12.214H18.267V23.006h2.542V14.765h6.1a1.3,1.3,0,0,1,1.247,1.244A1.233,1.233,0,0,1,26.913,17.3H24.627V15.776h-2.54v4.094h4.826A3.784,3.784,0,0,0,30.7,16,3.734,3.734,0,0,0,26.914,12.214Z" transform="translate(-11.689 -0.115)"/><path class="c" d="M22.088,12.359h2.54V10.791h5.517V8.248H24.628V7.32a.943.943,0,0,1,.947-.962h4.573V3.817H25.594a3.5,3.5,0,0,0-3.505,3.5v.928h-3.82V10.79h3.82v1.568Z" transform="translate(-11.688 -1.268)"/></svg>